<?xml version="1.0" encoding="utf-8"?>
<svg xmlns="http://www.w3.org/2000/svg" xmlns:xlink="http://www.w3.org/1999/xlink" width="504pt" height="223.2pt" viewBox="0 0 504 223.2" version="1.1"><defs><style type="text/css">*{stroke-linejoin: round; stroke-linecap: butt}</style></defs><path d="M 0 223.2 L 504 223.2 L 504 0 L 0 0 z" style="fill: #ffffff"/><path d="M 45.1 195.1 L 493.2 195.1 L 493.2 26.2 L 45.1 26.2 z" style="fill: #ffffff"/><defs><path id="md531f2e8da" d="M 0 0 L 0 3.5" style="stroke: #000000; stroke-width: 0.8"/></defs><use xlink:href="#md531f2e8da" x="89.9" y="195.1" style="stroke: #000000; stroke-width: 0.8"/><text style="font-size: 10px; font-family: sans-serif; text-anchor: middle" x="89.9" y="209.7">fixed</text><use xlink:href="#md531f2e8da" x="179.5" y="195.1" style="stroke: #000000; stroke-width: 0.8"/><text style="font-size: 10px; font-family: sans-serif; text-anchor: middle" x="179.5" y="209.7">overlap</text><use xlink:href="#md531f2e8da" x="269.1" y="195.1" style="stroke: #000000; stroke-width: 0.8"/><text style="font-size: 10px; font-family: sans-serif; text-anchor: middle" x="269.1" y="209.7">sentence</text><use xlink:href="#md531f2e8da" x="358.8" y="195.1" style="stroke: #000000; stroke-width: 0.8"/><text style="font-size: 10px; font-family: sans-serif; text-anchor: middle" x="358.8" y="209.7">recursive</text><use xlink:href="#md531f2e8da" x="448.4" y="195.1" style="stroke: #000000; stroke-width: 0.8"/><text style="font-size: 10px; font-family: sans-serif; text-anchor: middle" x="448.4" y="209.7">semantic</text><defs><path id="m7018f251c9" d="M 0 0 L -3.5 0" style="stroke: #000000; stroke-width: 0.8"/></defs><use xlink:href="#m7018f251c9" x="45.1" y="184.4" style="stroke: #000000; stroke-width: 0.8"/><text style="font-size: 10px; font-family: sans-serif; text-anchor: end" x="38.1" y="188.2">10</text><use xlink:href="#m7018f251c9" x="45.1" y="154.3" style="stroke: #000000; stroke-width: 0.8"/><text style="font-size: 10px; font-family: sans-serif; text-anchor: end" x="38.1" y="158.1">20</text><use xlink:href="#m7018f251c9" x="45.1" y="124.2" style="stroke: #000000; stroke-width: 0.8"/><text style="font-size: 10px; font-family: sans-serif; text-anchor: end" x="38.1" y="128">30</text><use xlink:href="#m7018f251c9" x="45.1" y="94.1" style="stroke: #000000; stroke-width: 0.8"/><text style="font-size: 10px; font-family: sans-serif; text-anchor: end" x="38.1" y="97.9">40</text><use xlink:href="#m7018f251c9" x="45.1" y="63.9" style="stroke: #000000; stroke-width: 0.8"/><text style="font-size: 10px; font-family: sans-serif; text-anchor: end" x="38.1" y="67.7">50</text><use xlink:href="#m7018f251c9" x="45.1" y="33.8" style="stroke: #000000; stroke-width: 0.8"/><text style="font-size: 10px; font-family: sans-serif; text-anchor: end" x="38.1" y="37.6">60</text><text style="font-size: 10px; font-family: sans-serif; text-anchor: middle" x="19" y="110.6" transform="rotate(-90 19 110.6)">chunk length (words)</text><path d="M 67.5 33.8 L 112.3 33.8 L 112.3 33.8 L 67.5 33.8 L 67.5 33.8" style="fill: none; stroke: #000000; stroke-linecap: square"/><path d="M 89.9 33.8 L 89.9 33.8" style="fill: none; stroke: #000000; stroke-linecap: square"/><path d="M 89.9 33.8 L 89.9 33.8" style="fill: none; stroke: #000000; stroke-linecap: square"/><path d="M 78.7 33.8 L 101.1 33.8" style="fill: none; stroke: #000000; stroke-linecap: square"/><path d="M 78.7 33.8 L 101.1 33.8" style="fill: none; stroke: #000000; stroke-linecap: square"/><path d="M 157.1 33.8 L 201.9 33.8 L 201.9 33.8 L 157.1 33.8 L 157.1 33.8" style="fill: none; stroke: #000000; stroke-linecap: square"/><path d="M 179.5 33.8 L 179.5 33.8" style="fill: none; stroke: #000000; stroke-linecap: square"/><path d="M 179.5 33.8 L 179.5 33.8" style="fill: none; stroke: #000000; stroke-linecap: square"/><path d="M 168.3 33.8 L 190.7 33.8" style="fill: none; stroke: #000000; stroke-linecap: square"/><path d="M 168.3 33.8 L 190.7 33.8" style="fill: none; stroke: #000000; stroke-linecap: square"/><path d="M 246.7 63.9 L 291.5 63.9 L 291.5 42.9 L 246.7 42.9 L 246.7 63.9" style="fill: none; stroke: #000000; stroke-linecap: square"/><path d="M 269.1 63.9 L 269.1 82" style="fill: none; stroke: #000000; stroke-linecap: square"/><path d="M 269.1 42.9 L 269.1 33.8" style="fill: none; stroke: #000000; stroke-linecap: square"/><path d="M 257.9 82 L 280.3 82" style="fill: none; stroke: #000000; stroke-linecap: square"/><path d="M 257.9 33.8 L 280.3 33.8" style="fill: none; stroke: #000000; stroke-linecap: square"/><path d="M 336.4 103.1 L 381.2 103.1 L 381.2 57.9 L 336.4 57.9 L 336.4 103.1" style="fill: none; stroke: #000000; stroke-linecap: square"/><path d="M 358.8 103.1 L 358.8 139.2" style="fill: none; stroke: #000000; stroke-linecap: square"/><path d="M 358.8 57.9 L 358.8 33.8" style="fill: none; stroke: #000000; stroke-linecap: square"/><path d="M 347.6 139.2 L 370 139.2" style="fill: none; stroke: #000000; stroke-linecap: square"/><path d="M 347.6 33.8 L 370 33.8" style="fill: none; stroke: #000000; stroke-linecap: square"/><path d="M 426 139.2 L 470.8 139.2 L 470.8 57.9 L 426 57.9 L 426 139.2" style="fill: none; stroke: #000000; stroke-linecap: square"/><path d="M 448.4 139.2 L 448.4 187.4" style="fill: none; stroke: #000000; stroke-linecap: square"/><path d="M 448.4 57.9 L 448.4 33.8" style="fill: none; stroke: #000000; stroke-linecap: square"/><path d="M 437.2 187.4 L 459.6 187.4" style="fill: none; stroke: #000000; stroke-linecap: square"/><path d="M 437.2 33.8 L 459.6 33.8" style="fill: none; stroke: #000000; stroke-linecap: square"/><path d="M 67.5 33.8 L 112.3 33.8" style="fill: none; stroke: #ff7f0e"/><path d="M 157.1 33.8 L 201.9 33.8" style="fill: none; stroke: #ff7f0e"/><path d="M 246.7 51.9 L 291.5 51.9" style="fill: none; stroke: #ff7f0e"/><path d="M 336.4 91 L 381.2 91" style="fill: none; stroke: #ff7f0e"/><path d="M 426 106.1 L 470.8 106.1" style="fill: none; stroke: #ff7f0e"/><path d="M 45.1 195.1 L 45.1 26.2" style="fill: none; stroke: #000000; stroke-width: 0.8; stroke-linejoin: miter; stroke-linecap: square"/><path d="M 493.2 195.1 L 493.2 26.2" style="fill: none; stroke: #000000; stroke-width: 0.8; stroke-linejoin: miter; stroke-linecap: square"/><path d="M 45.1 195.1 L 493.2 195.1" style="fill: none; stroke: #000000; stroke-width: 0.8; stroke-linejoin: miter; stroke-linecap: square"/><path d="M 45.1 26.2 L 493.2 26.2" style="fill: none; stroke: #000000; stroke-width: 0.8; stroke-linejoin: miter; stroke-linecap: square"/><text style="font-size: 12px; font-family: sans-serif; text-anchor: middle" x="269.1" y="20.2">Chunk-length distribution (max_words=60)</text></svg>
